<?xml version="1.0" encoding="UTF-8" standalone="no"?>
<svg
   width="337.65009"
   height="82.263206"
   viewBox="0 0 337.65009 82.263203"
   fill="none"
   version="1.1"
   id="svg7"
   sodipodi:docname="logo.svg"
   inkscape:version="1.4 (e7c3feb100, 2024-10-09)"
   xmlns:inkscape="http://www.inkscape.org/namespaces/inkscape"
   xmlns:sodipodi="http://sodipodi.sourceforge.net/DTD/sodipodi-0.dtd"
   xmlns="http://www.w3.org/2000/svg"
   xmlns:svg="http://www.w3.org/2000/svg">
  <sodipodi:namedview
     id="namedview7"
     pagecolor="#ffffff"
     bordercolor="#000000"
     borderopacity="0.25"
     inkscape:showpageshadow="2"
     inkscape:pageopacity="0.0"
     inkscape:pagecheckerboard="0"
     inkscape:deskcolor="#d1d1d1"
     inkscape:zoom="1.3129845"
     inkscape:cx="159.17934"
     inkscape:cy="167.17638"
     inkscape:window-width="1440"
     inkscape:window-height="831"
     inkscape:window-x="0"
     inkscape:window-y="0"
     inkscape:window-maximized="1"
     inkscape:current-layer="svg7" />
  <defs
     id="defs7">
    <linearGradient
       id="paint0_linear_2524_2362"
       x1="34.951401"
       y1="48.186298"
       x2="49.819401"
       y2="66.960701"
       gradientUnits="userSpaceOnUse">
      <stop
         stop-color="#3056D3"
         id="stop4" />
      <stop
         offset="1"
         stop-color="white"
         stop-opacity="0"
         id="stop5" />
    </linearGradient>
    <linearGradient
       id="paint1_linear_2524_2362"
       x1="44.5481"
       y1="32.0522"
       x2="44.473801"
       y2="51.576698"
       gradientUnits="userSpaceOnUse">
      <stop
         stop-color="#3056D3"
         id="stop6" />
      <stop
         offset="1"
         stop-color="white"
         stop-opacity="0"
         id="stop7" />
    </linearGradient>
    <clipPath
       id="clip0_2524_2362">
      <rect
         width="256.909"
         height="90"
         fill="#ffffff"
         transform="translate(0.144409,0.648438)"
         id="rect7"
         x="0"
         y="0" />
    </clipPath>
  </defs>
  <path
     d="m 56.841448,73.858853 c 18.074684,0 32.727194,-14.6524 32.727194,-32.7272 0,-18.0748 -14.65251,-32.727299 -32.727194,-32.727299 -18.074797,0 -32.727307,14.652499 -32.727307,32.727299 0,18.0748 14.65251,32.7272 32.727307,32.7272 z"
     fill="#3758f9"
     id="path2-6"
     style="stroke-width:0.999999" />
  <g
     id="g2"
     transform="matrix(4.1810669,0,0,4.1810669,-945.76544,73.596301)">
    <path
       id="path76"
       style="font-variation-settings:normal;vector-effect:none;fill:#040b2d;fill-opacity:1;stroke-width:0.144202;stroke-linecap:butt;stroke-linejoin:miter;stroke-miterlimit:4;stroke-dasharray:none;stroke-dashoffset:0;stroke-opacity:1;-inkscape-stroke:none;stop-color:#000000"
       d="m 237.50872,-12.769151 c -0.0591,0 -0.12745,0.422908 -0.10619,0.657327 0.0236,0.260396 0.15397,0.505265 0.35888,0.674168 0.2302,0.189746 0.41786,0.232796 1.01509,0.232796 h 0.53206 l -0.0573,0.08585 c -0.0553,0.0829 -0.0774,0.08578 -0.64369,0.0848 -0.6755,-0.0012 -0.76427,-0.02968 -1.07582,-0.345691 -0.17103,-0.17348 -0.33094,-0.495198 -0.33094,-0.665748 0,-0.06155 -0.0264,-0.07489 -0.14822,-0.07489 -0.13125,0 -0.15038,0.01197 -0.16811,0.104699 -0.0593,0.310088 0.13059,0.774526 0.43191,1.056373 0.32546,0.304434 0.63565,0.403219 1.26592,0.403219 h 0.33734 l -0.0544,0.105146 c -0.0299,0.05783 -0.2149,0.259994 -0.41111,0.449272 -0.521,0.5025716 -0.99786,0.7309946 -1.83569,0.8793166 -0.57988,0.102656 -1.38426,0.02645 -2.0971,-0.19874 -0.16525,-0.0522 -0.56135,-0.206888 -0.88029,-0.343754 -1.86169,-0.7989066 -2.30343,-0.9369636 -3.02172,-0.9442226 -0.49476,-0.005 -0.81171,0.07717 -1.19088,0.308804 -0.28284,0.172791 -0.52055,0.3780796 -0.49175,0.4246806 0.0114,0.01846 0.1543,0.05464 0.31753,0.08033 0.91013,0.14325 1.79267,0.628311 2.81396,1.54663 0.31185,0.280403 1.47124,1.489867 1.97959,2.06513 0.50698,0.573725 1.3268,1.38737 1.60781,1.595663 0.37333,0.276735 0.84182,0.53783 1.23067,0.685868 l 0.33079,0.125936 0.0509,0.277805 c 0.0883,0.481874 0.25937,0.72483 0.7317,1.039457 0.36186,0.241041 0.50611,0.374889 0.68937,0.639816 0.14987,0.216665 0.27411,0.364877 0.39435,0.453593 0.23712,0.17496 1.18991,0.174955 1.42703,0 0.12024,-0.08872 0.24448,-0.236928 0.39435,-0.453593 0.18325,-0.264927 0.32751,-0.398775 0.68937,-0.639816 0.47233,-0.314627 0.64335,-0.557583 0.7317,-1.039457 l 0.0509,-0.277805 0.33079,-0.125936 c 0.38885,-0.148038 0.85733,-0.409133 1.23067,-0.685868 0.281,-0.208293 1.10082,-1.021938 1.60781,-1.595663 0.50835,-0.575263 1.66774,-1.784727 1.97958,-2.06513 1.02129,-0.918319 1.90383,-1.40338 2.81397,-1.54663 0.16323,-0.02569 0.30611,-0.06187 0.31752,-0.08033 0.0288,-0.0466 -0.20891,-0.2518896 -0.49174,-0.4246806 -0.37917,-0.231637 -0.69613,-0.313805 -1.19088,-0.308804 -0.7183,0.0073 -1.16004,0.145316 -3.02173,0.9442226 -0.31894,0.136866 -0.71503,0.29155 -0.88028,0.343754 -0.71285,0.225187 -1.51723,0.301396 -2.0971,0.19874 -0.83783,-0.148322 -1.31469,-0.376745 -1.83569,-0.8793166 -0.19622,-0.189278 -0.38121,-0.391447 -0.41112,-0.449272 l -0.0544,-0.105146 h 0.33735 c 0.63027,0 0.94045,-0.09879 1.26592,-0.403219 0.30131,-0.281847 0.49119,-0.746285 0.43191,-1.056373 -0.0177,-0.09273 -0.0369,-0.104699 -0.16812,-0.104699 -0.12178,0 -0.14821,0.01335 -0.14821,0.07489 0,0.17055 -0.15991,0.492268 -0.33094,0.665748 -0.31155,0.316015 -0.40032,0.344509 -1.07582,0.345691 -0.56632,9.81e-4 -0.58838,-0.0019 -0.64369,-0.0848 l -0.0573,-0.08585 h 0.53206 c 0.59724,0 0.7849,-0.04305 1.01509,-0.232796 0.20491,-0.168903 0.33527,-0.413772 0.35889,-0.674168 0.0213,-0.234419 -0.0471,-0.657327 -0.10619,-0.657327 -0.0195,0 -0.11936,0.04687 -0.22199,0.104177 -0.18249,0.101888 -0.1875,0.109519 -0.22676,0.346436 -0.0463,0.279253 -0.1653,0.461314 -0.36291,0.555088 -0.10128,0.04806 -0.24722,0.0626 -0.62834,0.0626 h -0.49637 c -0.10046,-0.147121 -0.23101,-2.594227 -0.35178,-2.594235 -0.12541,-8e-6 -0.25155,2.447405 -0.35182,2.594235 h -0.49636 c -0.38112,0 -0.52706,-0.01453 -0.62834,-0.0626 -0.19762,-0.09377 -0.31663,-0.275835 -0.36291,-0.555088 -0.0393,-0.236917 -0.0443,-0.244548 -0.22676,-0.346436 -0.10263,-0.0573 -0.2025,-0.104177 -0.22199,-0.104177 z"
       sodipodi:nodetypes="sssscccssssssccssssssssssssccssssssccssssssssssssccsssssscccsssssssscscssssss" />
    <path
       id="path77"
       style="fill:#ffffff;stroke-width:0.144202"
       d="m 239.79688,-11.493768 c -0.14287,0.0068 -0.12249,4.0036676 -0.16245,3.7799476 -0.0491,-0.275019 -0.14212,-1.283976 -0.1807,-1.96058 -0.0208,-0.3648716 -0.043,-0.6686346 -0.0494,-0.6749876 -0.006,-0.0064 -0.10559,0.109469 -0.2205,0.257386 -0.11491,0.1479166 -0.36308,0.4146456 -0.55151,0.5927196 -0.27702,0.261793 -0.41596,0.359557 -0.72581,0.510898 -0.21076,0.102944 -0.55446,0.233021 -0.76381,0.288983 -0.34253,0.09156 -0.44749,0.101838 -1.04833,0.102761 -1.0849,0.0017 -1.31795,-0.0631 -3.46496,-0.962257 -0.87116,-0.364839 -1.33167,-0.5176836 -1.8108,-0.6011396 -0.36242,-0.06313 -0.83587,-0.05582 -1.01956,0.0158 -0.0911,0.03553 -0.0886,0.03829 0.0572,0.06133 0.88648,0.1400566 1.69936,0.6241236 2.76106,1.6441746 0.21841,0.209844 0.94277,0.965282 1.60975,1.678751 1.63983,1.754146 1.98696,2.057493 2.70695,2.365662 l 0.30918,0.132345 0.21007,-0.218861 c 0.1155,-0.120369 0.18317,-0.174586 0.15038,-0.120496 -0.081,0.133576 -0.14501,0.499563 -0.10589,0.605313 0.0272,0.07367 0.0379,0.05845 0.0768,-0.109765 0.026,-0.112505 0.11812,-0.302082 0.21722,-0.446813 0.0947,-0.138253 0.17191,-0.279365 0.17162,-0.313648 -2.9e-4,-0.03428 -0.0343,-0.225478 -0.0756,-0.42483 -0.0767,-0.370248 -0.0723,-0.495994 0.0173,-0.495994 0.0989,0 0.31185,0.728015 0.2717,0.928798 -0.0126,0.06285 -0.0893,0.201512 -0.17057,0.308133 -0.21953,0.287972 -0.28083,0.433177 -0.30084,0.712769 -0.0349,0.487673 0.11116,0.738014 0.63155,1.082753 0.27821,0.184306 0.40911,0.299982 0.52357,0.46276 0.29792,0.423694 0.3861,0.530026 0.47863,0.576847 0.1073,0.0543 0.80822,0.0543 0.91553,0 0.0925,-0.04682 0.18071,-0.153153 0.47863,-0.576847 0.11446,-0.162778 0.24536,-0.278454 0.52357,-0.46276 0.52039,-0.344739 0.66643,-0.59508 0.63154,-1.082753 -0.02,-0.279592 -0.0813,-0.424797 -0.30083,-0.712769 -0.0813,-0.106621 -0.158,-0.24528 -0.17057,-0.308133 -0.0402,-0.200783 0.17279,-0.928798 0.27169,-0.928798 0.0896,0 0.094,0.125746 0.0173,0.495994 -0.0413,0.199352 -0.0753,0.390547 -0.0756,0.42483 -2.9e-4,0.03428 0.077,0.175395 0.17162,0.313648 0.0991,0.144731 0.19125,0.334308 0.21722,0.446813 0.0388,0.168219 0.0495,0.183438 0.0768,0.109765 0.0391,-0.10575 -0.0249,-0.471737 -0.10589,-0.605313 -0.0328,-0.05409 0.0349,1.27e-4 0.15038,0.120496 l 0.21007,0.218861 0.30917,-0.132345 c 0.72,-0.308169 1.06712,-0.611516 2.70696,-2.365662 0.66698,-0.713469 1.39134,-1.468907 1.60975,-1.678751 1.06169,-1.020051 1.87458,-1.504118 2.76105,-1.6441746 0.1458,-0.02303 0.14836,-0.0258 0.0572,-0.06133 -0.18368,-0.07162 -0.65714,-0.07893 -1.01956,-0.0158 -0.47912,0.08346 -0.93963,0.2363006 -1.81079,0.6011396 -2.14701,0.899162 -2.38007,0.963916 -3.46496,0.962257 -0.60084,-9.23e-4 -0.7058,-0.0112 -1.04833,-0.102761 -0.20935,-0.05596 -0.55305,-0.186039 -0.76381,-0.288983 -0.30986,-0.151341 -0.44879,-0.249105 -0.72581,-0.510898 -0.18843,-0.178074 -0.4366,-0.444803 -0.55151,-0.5927196 -0.11492,-0.147917 -0.21415,-0.26374 -0.2205,-0.257386 -0.006,0.0064 -0.0286,0.310116 -0.0494,0.6749876 -0.0386,0.676604 -0.13158,1.685561 -0.18071,1.96058 -0.04,0.22372 -0.0196,-3.7731436 -0.16245,-3.7799476 z m -1.64574,3.8929176 c 0.0482,-7.79e-4 0.12503,0.03086 0.28317,0.10902 0.15291,0.07557 0.30971,0.172481 0.34845,0.215284 0.0695,0.07675 0.0688,0.0778 -0.0478,0.0778 -0.13108,0 -0.69474,-0.242075 -0.69474,-0.298371 0,-0.01961 0.0261,-0.05732 0.058,-0.08383 0.015,-0.01247 0.031,-0.01954 0.0529,-0.0199 z m 3.29148,0 c 0.0219,3.6e-4 0.0379,0.0074 0.0529,0.0199 0.032,0.02651 0.0581,0.06422 0.0581,0.08383 0,0.0563 -0.56365,0.298371 -0.69473,0.298371 -0.11661,0 -0.11729,-0.0011 -0.0479,-0.0778 0.0387,-0.0428 0.19555,-0.139713 0.34845,-0.215284 0.15815,-0.07816 0.23498,-0.109801 0.28317,-0.10902 z m -3.48664,0.407094 c 0.0163,-7.64e-4 0.0452,0.0048 0.0904,0.01438 0.13312,0.0281 0.63968,0.235955 0.69138,0.283691 0.0164,0.01517 0.0189,0.05615 0.005,0.09114 -0.0134,0.03499 -0.0269,0.06365 -0.0299,0.06364 -0.003,-10e-6 -0.0977,-0.03508 -0.21052,-0.07795 -0.32104,-0.12202 -0.49453,-0.220631 -0.541,-0.307463 -0.0253,-0.04726 -0.033,-0.06616 -0.006,-0.06744 z m 3.68181,0 c 0.0272,0.0013 0.0195,0.02018 -0.006,0.06744 -0.0465,0.08683 -0.21997,0.185443 -0.54101,0.307463 -0.11278,0.04287 -0.20751,0.07794 -0.21051,0.07795 -0.003,10e-6 -0.0165,-0.02865 -0.0299,-0.06364 -0.0134,-0.03499 -0.011,-0.07597 0.005,-0.09114 0.0517,-0.04774 0.55827,-0.255588 0.69138,-0.283692 0.0452,-0.0095 0.0741,-0.01515 0.0904,-0.01438 z m -3.70961,0.330117 c 0.0435,3.75e-4 0.13298,0.04301 0.34815,0.146801 0.24416,0.117769 0.36132,0.194312 0.34853,0.227654 -0.0254,0.06606 -0.19342,0.03475 -0.48929,-0.09121 -0.28688,-0.122128 -0.29517,-0.129581 -0.25776,-0.230709 0.0123,-0.03327 0.0206,-0.05279 0.0504,-0.05253 z m 3.7374,0 c 0.0298,-2.6e-4 0.0381,0.01926 0.0504,0.05253 0.0374,0.101128 0.0291,0.108581 -0.25776,0.230709 -0.29587,0.125957 -0.46394,0.157267 -0.48929,0.09121 -0.0128,-0.03334 0.10437,-0.109885 0.34852,-0.227654 0.21517,-0.103786 0.30463,-0.14642 0.34815,-0.146801 z m -3.8222,0.384068 c 0.13183,-0.0013 0.55148,0.181487 0.66143,0.301427 l 0.0886,0.09665 -0.14732,-0.02273 c -0.21387,-0.03307 -0.6731,-0.216145 -0.67238,-0.268043 2.9e-4,-0.0244 0.0149,-0.06699 0.0325,-0.09471 0.005,-0.0084 0.0183,-0.01241 0.0372,-0.01259 z m 3.907,0 c 0.0188,1.87e-4 0.0318,0.0042 0.0372,0.01259 0.0176,0.02773 0.0322,0.07032 0.0325,0.09471 7.2e-4,0.0519 -0.45852,0.234972 -0.67238,0.268043 l -0.14732,0.02273 0.0886,-0.09665 c 0.10995,-0.119939 0.52959,-0.302764 0.66142,-0.301427 z m -3.95491,0.355602 c 0.01,-3.9e-4 0.023,0.0035 0.0411,0.01066 0.0386,0.01532 0.18601,0.0712 0.32765,0.124223 0.1997,0.07475 0.25754,0.113476 0.25754,0.17251 0,0.06707 -0.017,0.07312 -0.14308,0.05067 -0.24209,-0.04313 -0.4848,-0.181192 -0.49934,-0.284064 -0.007,-0.05175 -0.005,-0.07315 0.0162,-0.074 z m 4.00283,0 c 0.0211,8.51e-4 0.0235,0.02224 0.0162,0.074 -0.0145,0.102871 -0.25725,0.240939 -0.49935,0.284064 -0.12604,0.02245 -0.14307,0.0164 -0.14307,-0.05067 0,-0.05903 0.0578,-0.09776 0.25753,-0.17251 0.14165,-0.05302 0.28909,-0.108902 0.32766,-0.124222 0.0181,-0.0072 0.0315,-0.01104 0.0411,-0.01066 z m -3.40929,2.097843 c 0.0858,0.0021 0.199,0.06747 0.30709,0.186818 0.16617,0.183479 0.24238,0.47131 0.20217,0.763665 -0.0142,0.103527 -0.0388,0.188233 -0.0547,0.188233 -0.0159,0 -0.0996,-0.05127 -0.18615,-0.113938 -0.26378,-0.191082 -0.36063,-0.465924 -0.25657,-0.728195 0.0161,-0.04068 -0.008,-0.0744 -0.0745,-0.104772 -0.0852,-0.03883 -0.0925,-0.05544 -0.0552,-0.125266 0.0247,-0.04625 0.0663,-0.0678 0.11782,-0.06654 z m 2.81575,0 c 0.0515,-0.0013 0.0931,0.0203 0.11781,0.06654 0.0374,0.06983 0.0301,0.08644 -0.0551,0.125266 -0.0667,0.03038 -0.0907,0.06409 -0.0745,0.104772 0.10407,0.262271 0.007,0.537113 -0.25657,0.728195 -0.0865,0.06267 -0.17028,0.113938 -0.18614,0.113938 -0.0159,0 -0.0405,-0.08471 -0.0547,-0.188233 -0.0402,-0.292355 0.036,-0.580186 0.20217,-0.763665 0.10809,-0.119349 0.22129,-0.18472 0.30709,-0.186818 z m -2.62432,0.376616 c -0.0256,4.18e-4 -0.0443,0.03483 -0.0443,0.110735 0,0.06145 0.0269,0.138714 0.0599,0.17169 0.097,0.09702 0.13953,0.07238 0.11036,-0.06401 -0.0293,-0.136914 -0.0861,-0.219077 -0.12601,-0.218414 z m 2.43288,0 c -0.0399,-6.63e-4 -0.0967,0.0815 -0.12601,0.218414 -0.0292,0.136396 0.0133,0.161032 0.11036,0.06401 0.033,-0.03298 0.0599,-0.110237 0.0599,-0.17169 0,-0.0759 -0.0187,-0.110313 -0.0443,-0.110735 z"
       sodipodi:nodetypes="csscsssscssscsscccssssccssssssssscssssscsssscccsssssscsssscssccscsssccssssscsssssssscsssssscsscsssscscsscscccsccscccscsssssssssssssscsssssssccsscsssscssssscsssc" />
    <path
       id="path2"
       style="fill:#ffffff;fill-opacity:1;stroke:none;stroke-width:0.183569"
       d="m 237.38196,-12.38717 c -0.1217,0.0072 -0.15328,0.183092 -0.15328,0.183092 l -0.0279,0.158426 c 0,0.17055 0.15991,0.492268 0.33094,0.665748 0.31155,0.316015 0.40032,0.344509 1.07582,0.345691 0.56632,9.81e-4 0.58838,-0.0019 0.64369,-0.0848 l 0.0573,-0.08585 h -0.53206 c -0.59723,0 -0.78489,-0.04305 -1.01509,-0.232796 -0.20491,-0.168903 -0.33527,-0.413772 -0.35888,-0.674168 -0.007,-0.07819 -0.004,-0.177183 0.005,-0.274451 -0.009,-0.0011 -0.0174,-0.0014 -0.0256,-8.94e-4 z m 4.82984,0 c -0.008,-4.76e-4 -0.0166,-2.3e-4 -0.0256,8.94e-4 0.009,0.09727 0.0121,0.196266 0.005,0.274452 -0.0236,0.260396 -0.15397,0.505264 -0.35888,0.674168 -0.23019,0.189745 -0.41785,0.232796 -1.01509,0.232796 h -0.53206 l 0.0573,0.08585 c 0.0553,0.0829 0.0774,0.08578 0.64369,0.0848 0.6755,-0.0012 0.76427,-0.02968 1.07582,-0.345691 0.17103,-0.173481 0.33093,-0.495199 0.33093,-0.665748 l -0.0279,-0.158426 c 0,0 -0.0316,-0.175894 -0.15328,-0.183092 z" />
  </g>
  <path
     id="text2"
     style="font-style:normal;font-variant:normal;font-weight:normal;font-stretch:normal;font-size:58.7966px;font-family:Roobek;-inkscape-font-specification:'Roobek, Normal';font-variant-ligatures:normal;font-variant-caps:normal;font-variant-numeric:normal;font-variant-east-asian:normal;text-align:start;writing-mode:lr-tb;direction:ltr;text-anchor:start;fill:#040b2d;fill-opacity:1;stroke-width:7.00464;-inkscape-stroke:none"
     d="M 188.64062 15.113281 C 185.46561 15.113281 183.34961 17.231234 183.34961 20.40625 C 183.34961 23.581266 185.46561 25.697266 188.64062 25.697266 C 191.81564 25.697266 193.93359 23.581266 193.93359 20.40625 C 193.93359 17.231234 191.81564 15.113281 188.64062 15.113281 z M 108.91406 17.583984 L 108.91406 58.740234 L 118.9082 58.740234 L 118.9082 25.814453 L 124.61133 25.814453 C 128.84468 25.814453 131.66797 27.696686 131.66797 30.695312 C 131.66797 33.811532 129.13973 35.398437 125.43555 35.398438 L 121.84766 35.398438 L 121.84766 43.630859 L 125.25781 43.630859 C 129.54996 43.630859 132.60742 46.630053 132.60742 51.392578 L 132.60742 60.685547 L 132.60352 60.685547 L 132.60352 67.148438 L 132.60742 67.148438 L 142.60352 67.148438 L 229.34375 67.148438 L 229.34375 60.685547 L 142.60352 60.685547 L 142.60352 51.392578 C 142.60352 46.747647 140.60544 42.925347 137.7832 40.220703 C 140.42905 37.986432 141.95703 34.752278 141.95703 30.695312 C 141.95703 22.640178 135.54869 17.583984 125.96484 17.583984 L 108.91406 17.583984 z M 233.50391 17.583984 L 233.50391 25.814453 L 244.08594 25.814453 L 244.08594 58.740234 L 254.08203 58.740234 L 254.08203 25.814453 L 264.66602 25.814453 L 264.66602 17.583984 L 233.50391 17.583984 z M 163.71094 29.34375 C 153.48033 29.34375 146.71875 35.221728 146.71875 43.982422 C 146.71875 52.860709 153.48033 58.740234 163.71094 58.740234 L 178.05859 58.740234 L 178.05859 29.34375 L 168.65039 29.34375 L 168.65039 51.097656 L 163.71094 51.097656 C 159.30119 51.097656 156.42188 48.039387 156.42188 43.982422 C 156.42188 40.04305 159.30119 36.986328 163.71094 36.986328 L 165.71094 36.986328 L 165.71094 29.34375 L 163.71094 29.34375 z M 183.9375 29.34375 L 183.9375 58.740234 L 193.3457 58.740234 L 193.3457 29.34375 L 183.9375 29.34375 z M 215.04102 29.34375 C 204.81041 29.34375 198.04883 35.221728 198.04883 43.982422 C 198.04883 52.860709 204.81041 58.740234 215.04102 58.740234 L 229.38672 58.740234 L 229.38672 29.34375 L 219.98047 29.34375 L 219.98047 51.097656 L 215.04102 51.097656 C 210.63127 51.097656 207.75 48.039387 207.75 43.982422 C 207.75 40.04305 210.63127 36.986328 215.04102 36.986328 L 217.04102 36.986328 L 217.04102 29.34375 L 215.04102 29.34375 z M 279.59961 29.34375 C 269.369 29.34375 262.60742 35.221728 262.60742 43.982422 C 262.60742 52.860709 269.369 58.740234 279.59961 58.740234 L 290.53711 58.740234 L 290.53711 51.097656 L 279.59961 51.097656 C 275.18986 51.097656 272.30859 48.039387 272.30859 43.982422 C 272.30859 40.04305 275.18986 36.986328 279.59961 36.986328 L 281.48242 36.986328 L 278.83594 45.628906 L 288.6543 45.628906 L 291.30078 36.986328 L 291.24219 36.986328 L 291.24219 29.34375 L 279.59961 29.34375 z M 295.5918 29.34375 L 295.5918 34.164062 C 295.5918 38.044638 297.53364 41.102072 300.23828 43.21875 C 297.41604 45.570614 295.41602 48.981083 295.41602 53.332031 L 295.41602 58.740234 L 304.82422 58.740234 L 304.82422 53.214844 C 304.82422 48.922692 306.17675 46.923828 309.29297 46.923828 L 311.05664 46.923828 C 315.11361 46.923828 316.81836 48.922692 316.81836 53.214844 L 316.81836 58.740234 L 326.22656 58.740234 L 326.22656 53.332031 C 326.22656 48.981083 324.22653 45.570614 321.4043 43.21875 C 324.10894 41.102072 326.04883 38.044638 326.04883 34.164062 L 326.04883 29.34375 L 316.64258 29.34375 L 316.64258 34.046875 C 316.64258 37.692264 314.70069 39.279297 310.87891 39.279297 L 309.41016 39.279297 C 306.47033 39.279297 305 37.692264 305 34.046875 L 305 29.34375 L 295.5918 29.34375 z " />
</svg>
